<svg xmlns="http://www.w3.org/2000/svg" xmlns:xlink="http://www.w3.org/1999/xlink" aria-hidden="true" role="img" class="iconify iconify--logos" width="31.88" height="32" preserveAspectRatio="xMidYMid meet" viewBox="0 0 256 257"><defs><linearGradient id="IconifyId1813088fe1fbc01fb466" x1="-.828%" x2="57.636%" y1="7.652%" y2="78.411%"><stop offset="0%" stop-color="#41D1FF"></stop><stop offset="100%" stop-color="#BD34FE"></stop></linearGradient><linearGradient id="IconifyId1813088fe1fbc01fb467" x1="43.376%" x2="50.316%" y1="2.242%" y2="89.03%"><stop offset="0%" stop-color="#FFBD4F"></stop><stop offset="100%" stop-color="#FF980E"></stop></linearGradient></defs><path fill="url(#IconifyId1813088fe1fbc01fb466)" d="M255.153 37.938L134.897 252.976c-2.483 4.44-8.862 4.466-11.382.048L.875 37.958c-2.746-4.814 1.371-10.646 6.827-9.67l120.385 21.517a6.537 6.537 0 0 0 2.322-.004l117.867-21.483c5.438-.991 9.574 4.796 6.877 9.62Z"></path><path fill="url(#IconifyId1813088fe1fbc01fb467)" d="M185.432.063L96.44 17.501a3.268 3.268 0 0 0-2.634 3.014l-5.474 92.456a3.268 3.268 0 0 0 3.997 3.378l24.777-5.718c2.318-.535 4.413 1.422 4.68 3.665l12.64 94.482c.268 2.243 2.362 3.2 4.68 3.665l24.777 5.718a3.268 3.268 0 0 0 3.997-3.378l-5.474-92.456a3.268 3.268 0 0 0-2.634-3.014l-88.992-17.438c-2.755-.539-5.231 1.814-5.231 4.585v.008c0 2.497 2.067 4.524 4.595 4.658l88.992 17.438c2.755.539 5.231-1.814 5.231-4.585l5.474-92.456c.268-2.243-1.794-4.2-4.112-4.665l-24.777-5.718c-2.318-.535-4.413 1.422-4.68 3.665l-12.64 94.482c-.268 2.243-2.362 3.2-4.68 3.665l-24.777 5.718c-2.318.535-4.413-1.422-4.68-3.665l-12.64-94.482c-.268-2.243-2.362-3.2-4.68-3.665L83.557 94.6c-2.755-.539-5.231 1.814-5.231 4.585v.008c0 2.497 2.067 4.524 4.595 4.658l88.992 17.438c2.755.539 5.231-1.814 5.231-4.585l5.474-92.456c.268-2.243-1.794-4.2-4.112-4.665l-24.777-5.718c-2.318-.535-4.413 1.422-4.68 3.665l-12.64 94.482c-.268 2.243-2.362 3.2-4.68 3.665l-24.777 5.718c-2.318.535-4.413-1.422-4.68-3.665l-12.64-94.482c-.268-2.243-2.362-3.2-4.68-3.665L39.432 72.418c-2.755-.539-5.231 1.814-5.231 4.585v.008c0 2.497 2.067 4.524 4.595 4.658l88.992 17.438c2.755.539 5.231-1.814 5.231-4.585l5.474-92.456c.268-2.243-1.794-4.2-4.112-4.665L90.882.069c-2.318-.535-4.413 1.422-4.68 3.665L73.562 98.216c-.268 2.243-2.362 3.2-4.68 3.665L44.105 107.6c-2.318.535-4.413-1.422-4.68-3.665L26.805 9.478c-.268-2.243 1.794-4.2 4.112-4.665L55.262.069c2.318-.535 4.413 1.422 4.68 3.665L72.582 98.216c.268 2.243 2.362 3.2 4.68 3.665l24.777 5.718c2.318.535 4.413-1.422 4.68-3.665l12.64-94.482c.268-2.243 2.362-3.2 4.68-3.665l24.777-5.718c2.318-.535 4.413 1.422 4.68 3.665l12.64 94.482c.268 2.243 2.362 3.2 4.68 3.665l24.777 5.718c2.318.535 4.413-1.422 4.68-3.665l12.64-94.482c.268-2.243 2.362-3.2 4.68-3.665L185.432.063Z"></path></svg>
